  <svg width="58" height="56" viewBox="0 0 58 56" fill="none" xmlns="http://www.w3.org/2000/svg">
    <path d="M25.2423 29.2927L35.4558 26.556L45.4375 23.8814C46.8519 23.5024 48.31 24.3597 48.6868 25.7971L49.3673 28.3786L50.6906 28.0241C52.1024 27.6458 53.5565 28.4985 53.9397 29.9285L55.3384 35.1486C55.7216 36.5787 54.8887 38.0442 53.4768 38.4225L49.119 39.5902L49.8009 42.1351C50.1841 43.5651 49.3511 45.0307 47.9393 45.409L28.2339 50.689C26.8221 51.0673 25.3706 50.2139 24.9848 48.7845L18.6801 25.2552C18.2969 23.8252 19.1298 22.3596 20.5417 21.9813C21.9535 21.603 23.4076 22.4558 23.7908 23.8858L25.2423 29.2927Z" stroke="white" stroke-width="2" stroke-miterlimit="10"/>
    <path d="M38.5835 37.0415L54.6917 32.7253" stroke="white" stroke-width="2" stroke-miterlimit="10"/>
    <path d="M37.1357 31.6392L49.3654 28.3622" stroke="white" stroke-width="2" stroke-miterlimit="10"/>
    <path d="M39.9263 42.0532L48.7644 39.685" stroke="white" stroke-width="2" stroke-miterlimit="10"/>
    <path d="M21.6272 36.5878L5.53403 27.3142C4.25255 26.5744 3.8059 24.9492 4.53363 23.6849C5.26395 22.4199 6.89476 21.9941 8.17693 22.7366L13.0287 25.5378L18.3164 16.3792L23.4807 7.42673C24.213 6.15846 25.8504 5.73647 27.134 6.48414L29.4402 7.82886L30.1247 6.64316C30.8551 5.37819 32.4859 4.95239 33.768 5.69485L38.4493 8.39097C39.7308 9.13083 40.1774 10.756 39.4497 12.0203L37.1939 15.9275L39.4761 17.2451C40.7576 17.985 41.2042 19.6102 40.4765 20.8745L38.1673 24.8742L37.495 26.0093" stroke="white" stroke-width="2" stroke-miterlimit="10"/>
    <path d="M27.9433 21.5808L36.2794 7.13846" stroke="white" stroke-width="2" stroke-miterlimit="10"/>
    <path d="M23.0983 18.7831L29.4297 7.82047" stroke="white" stroke-width="2" stroke-miterlimit="10"/>
    <path d="M32.4351 24.1738L37.0097 16.2504" stroke="white" stroke-width="2" stroke-miterlimit="10"/>
  </svg>
